<svg xmlns="http://www.w3.org/2000/svg" width="86.603" height="150.000" viewBox="0 0 86.603 150.000">
  <!-- Seamless Repeating Isometric Nested Cube Grid Pattern -->
  <g fill="none" stroke="#e4e4e7" stroke-width="1" stroke-linecap="round" stroke-linejoin="round">
    <!-- Outer Hexagons -->
    <path d="M 0.000 -50.000 L 43.301 -25.000 L 43.301 25.000 L 0.000 50.000 L -43.301 25.000 L -43.301 -25.000 Z M 86.603 -50.000 L 129.904 -25.000 L 129.904 25.000 L 86.603 50.000 L 43.301 25.000 L 43.301 -25.000 Z M 0.000 100.000 L 43.301 125.000 L 43.301 175.000 L 0.000 200.000 L -43.301 175.000 L -43.301 125.000 Z M 86.603 100.000 L 129.904 125.000 L 129.904 175.000 L 86.603 200.000 L 43.301 175.000 L 43.301 125.000 Z M 43.301 25.000 L 86.603 50.000 L 86.603 100.000 L 43.301 125.000 L 0.000 100.000 L 0.000 50.000 Z" />
    <!-- Middle Hexagons -->
    <path d="M 0.000 -33.000 L 28.579 -16.500 L 28.579 16.500 L 0.000 33.000 L -28.579 16.500 L -28.579 -16.500 Z M 86.603 -33.000 L 115.181 -16.500 L 115.181 16.500 L 86.603 33.000 L 58.024 16.500 L 58.024 -16.500 Z M 0.000 117.000 L 28.579 133.500 L 28.579 166.500 L 0.000 183.000 L -28.579 166.500 L -28.579 133.500 Z M 86.603 117.000 L 115.181 133.500 L 115.181 166.500 L 86.603 183.000 L 58.024 166.500 L 58.024 133.500 Z M 43.301 42.000 L 71.880 58.500 L 71.880 91.500 L 43.301 108.000 L 14.722 91.500 L 14.722 58.500 Z" stroke-opacity="0.8" />
    <!-- Inner Hexagons -->
    <path d="M 0.000 -16.500 L 14.289 -8.250 L 14.289 8.250 L 0.000 16.500 L -14.289 8.250 L -14.289 -8.250 Z M 86.603 -16.500 L 100.892 -8.250 L 100.892 8.250 L 86.603 16.500 L 72.313 8.250 L 72.313 -8.250 Z M 0.000 133.500 L 14.289 141.750 L 14.289 158.250 L 0.000 166.500 L -14.289 158.250 L -14.289 141.750 Z M 86.603 133.500 L 100.892 141.750 L 100.892 158.250 L 86.603 166.500 L 72.313 158.250 L 72.313 141.750 Z M 43.301 58.500 L 57.591 66.750 L 57.591 83.250 L 43.301 91.500 L 29.012 83.250 L 29.012 66.750 Z" stroke-opacity="0.6" />
    <!-- 3D Cube Edges -->
    <path d="M 0.000 0.000 L 0.000 -50.000 M 0.000 0.000 L 43.301 25.000 M 0.000 0.000 L -43.301 25.000 M 86.603 0.000 L 86.603 -50.000 M 86.603 0.000 L 129.904 25.000 M 86.603 0.000 L 43.301 25.000 M 0.000 150.000 L 0.000 100.000 M 0.000 150.000 L 43.301 175.000 M 0.000 150.000 L -43.301 175.000 M 86.603 150.000 L 86.603 100.000 M 86.603 150.000 L 129.904 175.000 M 86.603 150.000 L 43.301 175.000 M 43.301 75.000 L 43.301 25.000 M 43.301 75.000 L 86.603 100.000 M 43.301 75.000 L 0.000 100.000" />
  </g>
</svg>